<?xml version="1.0" encoding="UTF-8" standalone="no"?>
<!-- Created with Inkscape (http://www.inkscape.org/) -->

<svg
   xmlns:dc="http://purl.org/dc/elements/1.1/"
   xmlns:cc="http://creativecommons.org/ns#"
   xmlns:rdf="http://www.w3.org/1999/02/22-rdf-syntax-ns#"
   xmlns:svg="http://www.w3.org/2000/svg"
   xmlns="http://www.w3.org/2000/svg"
   xmlns:sodipodi="http://sodipodi.sourceforge.net/DTD/sodipodi-0.dtd"
   xmlns:inkscape="http://www.inkscape.org/namespaces/inkscape"
   width="210mm"
   height="297mm"
   viewBox="0 0 744.09448819 1052.3622047"
   id="svg4198"
   version="1.1"
   inkscape:version="0.91 r13725"
   sodipodi:docname="damgaplogos.svg">
  <defs
     id="defs4200" />
  <sodipodi:namedview
     id="base"
     pagecolor="#ffffff"
     bordercolor="#666666"
     borderopacity="1.0"
     inkscape:pageopacity="0.0"
     inkscape:pageshadow="2"
     inkscape:zoom="0.35"
     inkscape:cx="-1240.4853"
     inkscape:cy="-1187.7811"
     inkscape:document-units="px"
     inkscape:current-layer="layer1"
     showgrid="false"
     inkscape:window-width="2560"
     inkscape:window-height="1017"
     inkscape:window-x="2552"
     inkscape:window-y="-8"
     inkscape:window-maximized="1" />
  <metadata
     id="metadata4203">
    <rdf:RDF>
      <cc:Work
         rdf:about="">
        <dc:format>image/svg+xml</dc:format>
        <dc:type
           rdf:resource="http://purl.org/dc/dcmitype/StillImage" />
        <dc:title></dc:title>
      </cc:Work>
    </rdf:RDF>
  </metadata>
  <g
     inkscape:label="Layer 1"
     inkscape:groupmode="layer"
     id="layer1">
    <path
       inkscape:connector-curvature="0"
       style="opacity:1;fill:#000000;fill-opacity:1;stroke:none;stroke-width:0.009;stroke-miterlimit:4;stroke-dasharray:none;stroke-opacity:1"
       d="m -1355.2729,1448.7067 c -3.9027,0 -7.8183,0.088 -11.75,0.2617 -3.9317,0.1739 -7.8792,0.4335 -11.8399,0.7813 -3.9606,0.3477 -7.9361,0.783 -11.9257,1.3047 -3.9897,0.5216 -7.9931,1.1306 -12.0118,1.8261 -8.0372,1.3911 -15.1276,2.7229 -21.2714,3.9981 -6.1439,1.2751 -11.3414,2.4931 -15.5918,3.6523 l 0,44.2813 2.3183,0 c 7.4963,-2.8594 14.8762,-5.3694 22.1406,-7.5332 7.2645,-2.1639 14.4127,-3.9809 21.4454,-5.4493 7.0326,-1.5456 13.7375,-2.7057 20.1132,-3.4785 3.1879,-0.3864 6.2928,-0.6759 9.3164,-0.8691 3.0237,-0.1932 5.9668,-0.2891 8.8262,-0.2891 4.7142,0 9.3306,0.1538 13.8516,0.4629 4.5209,0.3091 8.9457,0.7743 13.2734,1.3926 2.1639,0.3091 4.2505,0.6905 6.2598,1.1445 2.0093,0.4541 3.9421,0.9792 5.7969,1.5782 1.8547,0.5989 3.6318,1.2717 5.332,2.0156 1.7002,0.7438 3.3235,1.5585 4.8691,2.4472 1.6229,0.9274 3.1484,1.9418 4.5782,3.043 1.4297,1.1013 2.7634,2.2893 4,3.5645 1.2365,1.2751 2.3766,2.6388 3.4199,4.0879 1.0433,1.449 1.9897,2.9845 2.8398,4.6074 0.8888,1.6229 1.6655,3.352 2.3321,5.1875 0.6665,1.8354 1.2216,3.7762 1.666,5.8242 0.4443,2.048 0.7778,4.2024 1,6.4629 0.2221,2.2605 0.334,4.6285 0.334,7.1016 l 0,6.7226 c -12.6742,0.6183 -24.942,1.391 -36.8047,2.3184 -11.8627,0.9273 -23.3199,2.0096 -34.3711,3.2461 -5.5257,0.6182 -10.8529,1.377 -15.9825,2.2754 -5.1295,0.8984 -10.0614,1.9366 -14.7949,3.1152 -4.7335,1.1785 -9.27,2.4964 -13.6074,3.9551 -4.3374,1.4587 -8.4766,3.058 -12.418,4.7968 -3.9027,1.7389 -7.5826,3.6417 -11.041,5.709 -3.4583,2.0673 -6.695,4.2996 -9.709,6.6953 -3.0139,2.3958 -5.8054,4.9556 -8.375,7.6797 -2.5696,2.7242 -4.9177,5.6115 -7.0429,8.6641 -1.0433,1.507 -2.0207,3.0739 -2.9336,4.6992 -0.9129,1.6253 -1.7605,3.3091 -2.543,5.0527 -1.5649,3.4874 -2.8688,7.2112 -3.9121,11.1719 -1.0433,3.9607 -1.826,8.1578 -2.3477,12.5918 -0.5216,4.434 -0.7832,9.1063 -0.7832,14.0137 0,2.9946 0.1273,5.9214 0.3809,8.7832 0.2536,2.8618 0.6335,5.6577 1.1406,8.3867 0.5072,2.729 1.1416,5.3921 1.9024,7.9883 0.7607,2.5962 1.6478,5.1265 2.6621,7.5898 1.0143,2.4634 2.1559,4.859 3.4238,7.1895 1.2679,2.3305 2.6621,4.5953 4.1836,6.793 1.5215,2.1976 3.1702,4.3296 4.9453,6.3945 1.7751,2.0648 3.6764,4.0621 5.7051,5.9941 2.0286,1.9321 4.1122,3.7431 6.2519,5.4336 2.1398,1.6906 4.3352,3.26 6.586,4.709 2.2508,1.449 4.558,2.7788 6.9199,3.9863 2.3619,1.2076 4.7789,2.2938 7.2519,3.2598 2.4731,0.966 5.0019,1.8106 7.586,2.5352 2.5841,0.7245 5.2247,1.3294 7.9199,1.8125 2.6952,0.483 5.4457,0.8444 8.252,1.0859 2.8062,0.2415 5.6685,0.3633 8.5859,0.3633 6.3371,0 12.2673,-0.3095 17.793,-0.9278 2.7628,-0.3091 5.4244,-0.6964 7.9843,-1.1601 2.56,-0.4637 5.018,-1.0048 7.375,-1.6231 4.7142,-1.1592 9.1589,-2.473 13.3321,-3.9414 4.1732,-1.4683 8.0748,-3.0897 11.707,-4.8672 3.0913,-1.391 6.2221,-3.0143 9.3906,-4.8691 3.1686,-1.8548 6.3753,-3.9413 9.6211,-6.2598 6.6462,-4.7914 11.9016,-8.5013 15.7657,-11.1289 l 0,27.5899 43.3554,0 0,-175.7383 c 0,-4.1732 -0.1597,-8.1766 -0.4785,-12.0117 -0.3188,-3.8351 -0.798,-7.503 -1.4355,-11 -0.6376,-3.497 -1.4343,-6.8236 -2.3907,-9.9825 -0.9563,-3.1588 -2.0725,-6.1499 -3.3476,-8.9707 -1.2752,-2.8207 -2.6948,-5.5103 -4.2598,-8.0703 -1.5649,-2.5599 -3.2741,-4.9899 -5.1289,-7.289 -1.8548,-2.2992 -3.8554,-4.4676 -6,-6.5059 -2.1446,-2.0383 -4.4328,-3.9452 -6.8672,-5.7226 -2.473,-1.8162 -5.0627,-3.4974 -7.7676,-5.043 -2.7048,-1.5456 -5.5262,-2.9573 -8.4629,-4.2324 -2.9366,-1.2752 -5.9877,-2.4133 -9.1562,-3.418 -3.1685,-1.0047 -6.4531,-1.8752 -9.8535,-2.6094 -3.3618,-0.7728 -6.874,-1.4497 -10.5352,-2.0293 -3.6612,-0.5796 -7.4729,-1.0608 -11.4336,-1.4472 -3.9606,-0.3864 -8.0699,-0.6779 -12.33,-0.8711 -4.2602,-0.1932 -8.6709,-0.2891 -13.2305,-0.2891 z m 69.3223,129.3691 0,72.1036 c -2.7049,2.0866 -5.4683,4.1012 -8.2891,6.0429 -2.8208,1.9417 -5.6981,3.8107 -8.6348,5.6074 -2.9367,1.7968 -5.9317,3.522 -8.9844,5.1739 -3.0526,1.6519 -6.1634,3.2313 -9.332,4.7383 -3.1685,1.4683 -6.4192,2.7522 -9.7519,3.8535 -3.3328,1.1012 -6.7472,2.0197 -10.2442,2.7539 -3.497,0.7342 -7.077,1.2833 -10.7383,1.6504 -3.6612,0.3671 -7.405,0.5508 -11.2304,0.5508 -4.5983,0 -8.9012,-0.2317 -12.9102,-0.6954 -4.009,-0.4636 -7.7229,-1.1585 -11.1426,-2.0859 -3.4197,-0.9274 -6.5445,-2.0874 -9.375,-3.4785 -1.4152,-0.6955 -2.7575,-1.4483 -4.0254,-2.2598 -1.2679,-0.8114 -2.4614,-1.68 -3.582,-2.6074 -1.1206,-0.9467 -2.1718,-1.9515 -3.1523,-3.0117 -0.9805,-1.0602 -1.8901,-2.1759 -2.7305,-3.3496 -0.8404,-1.1737 -1.6121,-2.4042 -2.3125,-3.6914 -0.7004,-1.2873 -1.3303,-2.6325 -1.8906,-4.0332 -1.1206,-2.8015 -1.9612,-5.8285 -2.5215,-9.084 -0.5603,-3.2555 -0.8399,-6.7397 -0.8399,-10.4492 0,-3.2845 0.2417,-6.3894 0.7247,-9.3164 0.483,-2.9271 1.2078,-5.6746 2.1738,-8.2442 0.966,-2.5696 2.1721,-4.9616 3.6211,-7.1738 1.449,-2.2122 3.1402,-4.2449 5.0722,-6.0996 1.9321,-1.8934 4.0146,-3.6625 6.2461,-5.3047 2.2315,-1.6422 4.6117,-3.1578 7.1426,-4.5488 2.531,-1.3911 5.2126,-2.657 8.043,-3.7969 2.8304,-1.1399 5.8095,-2.1542 8.9394,-3.043 2.6276,-0.7342 5.4869,-1.425 8.5782,-2.0723 3.0912,-0.6472 6.4157,-1.2502 9.9707,-1.8105 7.1099,-1.1206 15.1466,-2.067 24.1113,-2.8398 18.0839,-1.5457 33.772,-2.7057 47.0645,-3.4786 z"
       id="path5034"
       inkscape:export-xdpi="100"
       inkscape:export-ydpi="100" />
    <path
       inkscape:connector-curvature="0"
       style="opacity:1;fill:#ba3945;fill-opacity:1;stroke:none;stroke-width:0.009;stroke-miterlimit:4;stroke-dasharray:none;stroke-opacity:1"
       d="m -1030.6909,1447.779 c -3.8254,0 -7.5972,0.1977 -11.3164,0.5937 -3.7192,0.3961 -7.3851,0.9911 -10.998,1.7832 -3.6129,0.7922 -7.1731,1.7825 -10.6797,2.9707 -3.5067,1.1882 -6.959,2.574 -10.3594,4.1582 -3.3617,1.5843 -6.7282,3.3234 -10.0996,5.2168 -3.3714,1.8934 -6.7479,3.942 -10.1289,6.1446 -3.3811,2.2025 -6.7675,4.5586 -10.1582,7.0703 -3.3907,2.5116 -6.7871,5.1772 -10.1875,7.998 l 0,-28.748 -43.586,0 0,258.9707 43.586,0 0,-193.3594 c 5.9507,-4.5596 11.9028,-8.7128 17.8535,-12.4609 2.9753,-1.8741 5.9504,-3.6472 8.9258,-5.3184 2.9753,-1.6712 5.9504,-3.2406 8.9258,-4.709 3.0139,-1.4683 6.023,-2.7522 9.0273,-3.8535 3.0043,-1.1013 6.0034,-2.0197 8.998,-2.7539 2.9947,-0.7342 5.9858,-1.2853 8.9708,-1.6524 2.9849,-0.367 5.9641,-0.5507 8.9394,-0.5507 3.1299,0 6.077,0.1058 8.8398,0.3183 2.7629,0.2126 5.3407,0.532 7.7364,0.9571 2.3957,0.425 4.6081,0.9561 6.6367,1.5937 2.0286,0.6376 3.8736,1.3823 5.5352,2.2324 1.6615,0.8115 3.2269,1.728 4.6953,2.752 1.4683,1.024 2.8401,2.1541 4.1152,3.3906 1.2751,1.2365 2.4532,2.5803 3.5352,4.0293 1.0819,1.449 2.06833,3.0045 2.95703,4.666 0.8114,1.5457 1.5502,3.2209 2.2168,5.0274 0.6665,1.8064 1.2615,3.7432 1.7832,5.8105 0.5216,2.0673 0.9709,4.2657 1.3476,6.5938 0.3768,2.3281 0.6803,4.786 0.9122,7.375 0.5409,5.1005 0.9463,10.3559 1.2168,15.7656 0.2704,5.4097 0.4062,10.9745 0.4062,16.6933 l 0,147.4532 43.5859,0 0,-165.7696 c 0,-4.6368 -0.1537,-9.2732 -0.4629,-13.9101 -0.3091,-4.7915 -0.6964,-8.9646 -1.1601,-12.5195 3.0526,-2.3571 6.1056,-4.6074 9.1582,-6.752 3.0526,-2.1446 6.1056,-4.1832 9.1582,-6.1152 3.0526,-1.9321 6.1056,-3.759 9.1582,-5.4785 3.0526,-1.7196 6.1056,-3.3329 9.1582,-4.8399 3.0526,-1.5456 6.1036,-2.8974 9.1563,-4.0566 3.0526,-1.1593 6.1055,-2.1257 9.1582,-2.8985 3.0526,-0.7728 6.1055,-1.3518 9.1582,-1.7383 3.0526,-0.3864 6.1055,-0.58 9.1582,-0.58 3.1299,0 6.077,0.1058 8.8398,0.3183 2.7628,0.2126 5.3406,0.532 7.7363,0.9571 2.3958,0.425 4.6081,0.9561 6.6368,1.5937 2.0286,0.6376 3.8736,1.3823 5.5351,2.2324 1.66156,0.8501 3.22697,1.8006 4.69532,2.8535 1.46835,1.053 2.84009,2.2071 4.11524,3.4629 1.27514,1.2559 2.45321,2.6136 3.53515,4.0723 1.08194,1.4587 2.0683,3.0201 2.95703,4.6816 0.81146,1.5457 1.55025,3.2209 2.2168,5.0274 0.66655,1.8064 1.2596,3.7433 1.78125,5.8105 0.52165,2.0673 0.97091,4.2657 1.34766,6.5938 0.37674,2.3281 0.68221,4.7861 0.91406,7.375 0.54097,5.1778 0.94631,10.4512 1.2168,15.8222 0.27048,5.3711 0.40625,10.8401 0.40625,16.4043 l 0,147.4532 43.58593,0 0,-168.0879 c 0,-3.8641 -0.10583,-7.6204 -0.31836,-11.2696 -0.21252,-3.6491 -0.53198,-7.1908 -0.95703,-10.625 -0.42504,-3.4341 -0.95617,-6.7612 -1.59375,-9.9804 -0.63757,-3.2193 -1.38037,-6.3316 -2.23047,-9.336 -0.85009,-3.0043 -1.80652,-5.9 -2.86914,-8.6894 -1.06262,-2.7894 -2.23266,-5.4724 -3.50781,-8.0469 -1.27514,-2.5744 -2.65686,-5.0409 -4.14453,-7.4004 -1.48767,-2.3595 -3.08106,-4.6113 -4.78125,-6.7558 -1.68087,-2.1639 -3.4794,-4.1926 -5.39453,-6.086 -1.91513,-1.8934 -3.94631,-3.6505 -6.0957,-5.2734 -2.1494,-1.6229 -4.41714,-3.1105 -6.80079,-4.4629 -2.38365,-1.3524 -4.88404,-2.5704 -7.50195,-3.6523 -2.61791,-1.082 -5.35291,-2.0284 -8.20508,-2.8399 -2.85217,-0.8114 -5.82177,-1.4883 -8.9082,-2.0293 -3.0864,-0.541 -6.2887,-0.9463 -9.6094,-1.2168 -3.3207,-0.2705 -6.7595,-0.4062 -10.3144,-0.4062 -4.1346,0 -8.2059,0.2076 -12.2149,0.623 -4.0089,0.4154 -7.9545,1.0384 -11.8379,1.8692 -3.8834,0.8307 -7.705,1.869 -11.4629,3.1152 -3.7578,1.2462 -7.4517,2.6998 -11.0839,4.3613 -3.6323,1.6229 -7.3621,3.5078 -11.1875,5.6524 -3.8255,2.1445 -7.747,4.5505 -11.7657,7.2168 -4.0186,2.6662 -8.1338,5.5933 -12.3457,8.7812 -4.2118,3.1879 -8.5207,6.6362 -12.9257,10.3457 -1.507,-3.2845 -3.2122,-6.3913 -5.1153,-9.3183 -1.903,-2.9271 -4.0036,-5.6746 -6.3027,-8.2442 -2.2991,-2.5696 -4.797,-4.9616 -7.4922,-7.1738 -2.6952,-2.2122 -5.5884,-4.2449 -8.6797,-6.0996 -3.0526,-1.8548 -6.2733,-3.4781 -9.6641,-4.8692 -3.3907,-1.391 -6.95083,-2.5492 -10.67963,-3.4765 -3.7289,-0.9274 -7.6265,-1.6242 -11.6934,-2.0879 -4.0669,-0.4637 -8.3039,-0.6953 -12.709,-0.6953 z"
       id="path5022"
       inkscape:export-xdpi="100"
       inkscape:export-ydpi="100" />
    <path
       inkscape:connector-curvature="0"
       style="opacity:1;fill:#000000;fill-opacity:1;stroke:none;stroke-width:0.009;stroke-miterlimit:4;stroke-dasharray:none;stroke-opacity:1"
       d="m -1030.6909,1447.779 c 4.4051,0 8.6421,0.2316 12.709,0.6953 4.0669,0.4637 7.9645,1.1605 11.6934,2.0879 3.7288,0.9273 7.28893,2.0855 10.67963,3.4765 3.3908,1.3911 6.6115,3.0144 9.6641,4.8692 3.0913,1.8547 5.9845,3.8874 8.6797,6.0996 2.6952,2.2122 5.1931,4.6042 7.4922,7.1738 2.2991,2.5696 4.3997,5.3171 6.3027,8.2442 1.9031,2.927 3.6083,6.0338 5.1153,9.3183 4.405,-3.7095 8.7139,-7.1578 12.9257,-10.3457 4.2119,-3.1879 8.3271,-6.115 12.3457,-8.7812 4.0187,-2.6663 7.9402,-5.0723 11.7657,-7.2168 3.8254,-2.1446 7.5552,-4.0295 11.1875,-5.6524 3.6322,-1.6615 7.3261,-3.1151 11.0839,-4.3613 3.7579,-1.2462 7.5795,-2.2845 11.4629,-3.1152 3.8834,-0.8308 7.829,-1.4538 11.8379,-1.8692 4.009,-0.4154 8.0803,-0.623 12.2149,-0.623 3.5549,0 6.9937,0.1357 10.3144,0.4062 3.3207,0.2705 6.523,0.6758 9.6094,1.2168 3.08643,0.541 6.05603,1.2179 8.9082,2.0293 2.85217,0.8115 5.58717,1.7579 8.20508,2.8399 2.61791,1.0819 5.1183,2.2999 7.50195,3.6523 2.38365,1.3524 4.65139,2.84 6.80079,4.4629 2.14939,1.6229 4.18057,3.38 6.0957,5.2734 1.91513,1.8934 3.71366,3.9221 5.39453,6.086 1.70019,2.1445 3.29358,4.3963 4.78125,6.7558 1.48767,2.3595 2.86939,4.826 4.14453,7.4004 1.27515,2.5745 2.44519,5.2575 3.50781,8.0469 1.06262,2.7894 2.01905,5.6851 2.86914,8.6894 0.8501,3.0044 1.5929,6.1167 2.23047,9.336 0.63758,3.2192 1.16871,6.5463 1.59375,9.9804 0.42505,3.4342 0.74451,6.9759 0.95703,10.625 0.21253,3.6492 0.31836,7.4055 0.31836,11.2696 l 0,168.0879 -43.58593,0 0,-147.4532 c 0,-5.5642 -0.13577,-11.0332 -0.40625,-16.4043 -0.27049,-5.371 -0.67583,-10.6444 -1.2168,-15.8222 -0.23185,-2.5889 -0.53732,-5.0469 -0.91406,-7.375 -0.37675,-2.3281 -0.82601,-4.5265 -1.34766,-6.5938 -0.52165,-2.0672 -1.1147,-4.0041 -1.78125,-5.8105 -0.66655,-1.8065 -1.40534,-3.4817 -2.2168,-5.0274 -0.88873,-1.6615 -1.87509,-3.2229 -2.95703,-4.6816 -1.08194,-1.4587 -2.26001,-2.8164 -3.53515,-4.0723 -1.27515,-1.2558 -2.64689,-2.4099 -4.11524,-3.4629 -1.46835,-1.0529 -3.03376,-2.0034 -4.69532,-2.8535 -1.6615,-0.8501 -3.5065,-1.5948 -5.5351,-2.2324 -2.0287,-0.6376 -4.241,-1.1687 -6.6368,-1.5937 -2.3957,-0.4251 -4.9735,-0.7445 -7.7363,-0.9571 -2.7628,-0.2125 -5.7099,-0.3183 -8.8398,-0.3183 -3.0527,0 -6.1056,0.1936 -9.1582,0.58 -3.0527,0.3865 -6.1056,0.9655 -9.1582,1.7383 -3.0527,0.7728 -6.1056,1.7392 -9.1582,2.8985 -3.0527,1.1592 -6.1037,2.511 -9.1563,4.0566 -3.0526,1.507 -6.1056,3.1203 -9.1582,4.8399 -3.0526,1.7195 -6.1056,3.5464 -9.1582,5.4785 -3.0526,1.932 -6.1056,3.9706 -9.1582,6.1152 -3.0526,2.1446 -6.1056,4.3949 -9.1582,6.752 0.4637,3.5549 0.851,7.728 1.1601,12.5195 0.3092,4.6369 0.4629,9.2733 0.4629,13.9101 l 0,165.7696 -43.5859,0 0,-147.4532 c 0,-5.7188 -0.1358,-11.2836 -0.4062,-16.6933 -0.2705,-5.4097 -0.6759,-10.6651 -1.2168,-15.7656 -0.2319,-2.589 -0.5354,-5.0469 -0.9122,-7.375 -0.3767,-2.3281 -0.826,-4.5265 -1.3476,-6.5938 -0.5217,-2.0673 -1.1167,-4.0041 -1.7832,-5.8105 -0.6666,-1.8065 -1.4054,-3.4817 -2.2168,-5.0274 -0.8887,-1.6615 -1.87513,-3.217 -2.95703,-4.666 -1.082,-1.449 -2.2601,-2.7928 -3.5352,-4.0293 -1.2751,-1.2365 -2.6469,-2.3666 -4.1152,-3.3906 -1.4684,-1.024 -3.0338,-1.9405 -4.6953,-2.752 -1.6616,-0.8501 -3.5066,-1.5948 -5.5352,-2.2324 -2.0286,-0.6376 -4.241,-1.1687 -6.6367,-1.5937 -2.3957,-0.4251 -4.9735,-0.7445 -7.7364,-0.9571 -2.7628,-0.2125 -5.7099,-0.3183 -8.8398,-0.3183 -2.9753,0 -5.9545,0.1837 -8.9394,0.5507 -2.985,0.3671 -5.9761,0.9182 -8.9708,1.6524 -2.9946,0.7342 -5.9937,1.6526 -8.998,2.7539 -3.0043,1.1013 -6.0134,2.3852 -9.0273,3.8535 -2.9754,1.4684 -5.9505,3.0378 -8.9258,4.709 -2.9754,1.6712 -5.9505,3.4443 -8.9258,5.3184 -5.9507,3.7481 -11.9028,7.9013 -17.8535,12.4609 l 0,193.3594 -43.586,0 0,-258.9707 43.586,0 0,28.748 c 3.4004,-2.8208 6.7968,-5.4864 10.1875,-7.998 3.3907,-2.5117 6.7771,-4.8678 10.1582,-7.0703 3.381,-2.2026 6.7575,-4.2512 10.1289,-6.1446 3.3714,-1.8934 6.7379,-3.6325 10.0996,-5.2168 3.4004,-1.5842 6.8527,-2.97 10.3594,-4.1582 3.5066,-1.1882 7.0668,-2.1785 10.6797,-2.9707 3.6129,-0.7921 7.2788,-1.3871 10.998,-1.7832 3.7192,-0.396 7.491,-0.5937 11.3164,-0.5937 z"
       id="path5020"
       inkscape:export-xdpi="100"
       inkscape:export-ydpi="100" />
    <path
       inkscape:connector-curvature="0"
       style="opacity:1;fill:#000000;fill-opacity:1;stroke:none;stroke-width:0.009;stroke-miterlimit:4;stroke-dasharray:none;stroke-opacity:1"
       d="m -862.08854,2551.6812 0,258.9707 43.5879,0 0,-258.9707 -43.5879,0 z"
       id="path5048"
       inkscape:export-xdpi="100"
       inkscape:export-ydpi="100" />
    <path
       inkscape:connector-curvature="0"
       style="opacity:1;fill:#000000;fill-opacity:1;stroke:none;stroke-width:0.009;stroke-miterlimit:4;stroke-dasharray:none;stroke-opacity:1"
       d="m -862.08854,2558.8687 43.5879,0 0,258.9707 -43.5879,0 0,-258.9707 z"
       id="path5046"
       inkscape:export-xdpi="100"
       inkscape:export-ydpi="100" />
    <path
       inkscape:connector-curvature="0"
       style="opacity:1;fill:#000000;fill-opacity:1;stroke:none;stroke-width:0.009;stroke-miterlimit:4;stroke-dasharray:none;stroke-opacity:1"
       d="m -1460.7097,2551.6812 0,168.0879 c 0,4.0186 0.1169,7.9162 0.3536,11.6933 0.2366,3.7772 0.593,7.4331 1.0664,10.9688 0.4733,3.5356 1.0653,6.95 1.7753,10.2441 0.7101,3.2941 1.5377,6.4689 2.4844,9.5215 0.9467,3.0526 2.012,5.9838 3.1953,8.7949 1.1834,2.8111 2.4843,5.5007 3.9043,8.0703 1.4201,2.5696 2.9585,5.0196 4.6153,7.3477 1.6567,2.3281 3.4327,4.5345 5.3261,6.6211 1.8934,2.0673 3.8812,4.0056 5.9629,5.8144 2.0818,1.8089 4.2572,3.4886 6.5274,5.0391 2.2701,1.5505 4.6352,2.9716 7.0937,4.2637 2.4585,1.292 5.0113,2.4546 7.6583,3.4882 2.6469,1.0337 5.3874,1.9377 8.2226,2.7129 2.8353,0.7753 5.7635,1.4227 8.7871,1.9395 3.0237,0.5168 6.1415,0.9037 9.3535,1.1621 3.2121,0.2584 6.5196,0.3887 9.92,0.3887 4.0572,0 8.0267,-0.1937 11.9101,-0.5801 3.8834,-0.3864 7.6811,-0.9655 11.3907,-1.7383 3.7095,-0.7728 7.3315,-1.7392 10.8671,-2.8984 3.5357,-1.1592 6.984,-2.513 10.3457,-4.0586 3.3618,-1.5456 6.7622,-3.2589 10.2012,-5.1426 3.439,-1.8837 6.9173,-3.9364 10.4336,-6.1582 3.5163,-2.2218 7.0705,-4.6139 10.6641,-7.1738 3.5936,-2.56 7.2256,-5.2895 10.8965,-8.1875 l 0,28.75 43.5878,0 0,-258.9707 -43.5878,0 0,193.3574 c -2.8981,2.2798 -5.8533,4.4582 -8.8672,6.5351 -3.014,2.077 -6.0869,4.0537 -9.2168,5.9278 -3.1299,1.8741 -6.3167,3.6471 -9.5625,5.3183 -3.2459,1.6713 -6.5504,3.2407 -9.9121,4.709 -3.3231,1.4684 -6.5838,2.7523 -9.7813,3.8535 -3.1975,1.1013 -6.3323,2.0198 -9.4043,2.7539 -3.0719,0.7342 -6.081,1.2853 -9.0273,1.6524 -2.9464,0.3671 -5.8296,0.5508 -8.6504,0.5508 -3.1686,0 -6.1477,-0.098 -8.9395,-0.291 -2.7918,-0.1932 -5.3955,-0.4828 -7.8105,-0.8692 -2.4151,-0.3864 -4.6414,-0.8696 -6.6797,-1.4492 -2.0383,-0.5796 -3.8892,-1.2565 -5.5508,-2.0293 -1.6615,-0.7728 -3.245,-1.6614 -4.7519,-2.666 -1.507,-1.0047 -2.9367,-2.1248 -4.2891,-3.3613 -1.3524,-1.2365 -2.6283,-2.5883 -3.8262,-4.0567 -1.1978,-1.4683 -2.318,-3.0537 -3.3613,-4.7539 -1.0047,-1.6615 -1.9231,-3.4047 -2.7539,-5.2305 -0.8308,-1.8257 -1.5736,-3.7326 -2.2305,-5.7226 -0.6569,-1.99 -1.2279,-4.0626 -1.711,-6.2168 -0.483,-2.1542 -0.8783,-4.3906 -1.1875,-6.709 -0.6182,-4.7142 -1.0815,-9.8917 -1.3906,-15.5332 -0.3091,-5.6415 -0.4648,-11.7475 -0.4648,-18.3164 l 0,-147.4531 -43.586,0 z"
       id="path5044"
       inkscape:export-xdpi="100"
       inkscape:export-ydpi="100" />
    <path
       inkscape:connector-curvature="0"
       style="opacity:1;fill:#000000;fill-opacity:1;stroke:none;stroke-width:0.009;stroke-miterlimit:4;stroke-dasharray:none;stroke-opacity:1"
       d="m -1460.7097,2551.6812 43.586,0 0,147.4531 c 0,6.5689 0.1557,12.6749 0.4648,18.3164 0.3091,5.6415 0.7724,10.819 1.3906,15.5332 0.3092,2.3184 0.7045,4.5548 1.1875,6.709 0.4831,2.1542 1.0541,4.2268 1.711,6.2168 0.6569,1.99 1.3997,3.8969 2.2305,5.7226 0.8308,1.8258 1.7492,3.569 2.7539,5.2305 1.0433,1.7002 2.1635,3.2856 3.3613,4.7539 1.1979,1.4684 2.4738,2.8202 3.8262,4.0567 1.3524,1.2365 2.7821,2.3566 4.2891,3.3613 1.5069,1.0046 3.0904,1.8932 4.7519,2.666 1.6616,0.7728 3.5125,1.4497 5.5508,2.0293 2.0383,0.5796 4.2646,1.0628 6.6797,1.4492 2.415,0.3864 5.0187,0.676 7.8105,0.8692 2.7918,0.1932 5.7709,0.291 8.9395,0.291 2.8208,0 5.704,-0.1837 8.6504,-0.5508 2.9463,-0.3671 5.9554,-0.9182 9.0273,-1.6524 3.072,-0.7341 6.2068,-1.6526 9.4043,-2.7539 3.1975,-1.1012 6.4582,-2.3851 9.7813,-3.8535 3.3617,-1.4683 6.6662,-3.0377 9.9121,-4.709 3.2458,-1.6712 6.4326,-3.4442 9.5625,-5.3183 3.1299,-1.8741 6.2028,-3.8508 9.2168,-5.9278 3.0139,-2.0769 5.9691,-4.2553 8.8672,-6.5351 l 0,-193.3574 43.5878,0 0,258.9707 -43.5878,0 0,-28.75 c -3.6709,2.898 -7.3029,5.6275 -10.8965,8.1875 -3.5936,2.5599 -7.1478,4.952 -10.6641,7.1738 -3.5163,2.2218 -6.9946,4.2745 -10.4336,6.1582 -3.439,1.8837 -6.8394,3.597 -10.2012,5.1426 -3.3617,1.5456 -6.81,2.8994 -10.3457,4.0586 -3.5356,1.1592 -7.1576,2.1256 -10.8671,2.8984 -3.7096,0.7728 -7.5073,1.3519 -11.3907,1.7383 -3.8834,0.3864 -7.8529,0.5801 -11.9101,0.5801 -3.4004,0 -6.7079,-0.1303 -9.92,-0.3887 -3.212,-0.2584 -6.3298,-0.6453 -9.3535,-1.1621 -3.0236,-0.5168 -5.9518,-1.1642 -8.7871,-1.9395 -2.8353,-0.7752 -5.5758,-1.6792 -8.2226,-2.7129 -2.647,-1.0336 -5.1998,-2.1962 -7.6583,-3.4882 -2.4585,-1.2921 -4.8236,-2.7132 -7.0937,-4.2637 -2.2702,-1.5505 -4.4456,-3.2302 -6.5274,-5.0391 -2.0817,-1.8088 -4.0695,-3.7471 -5.9629,-5.8144 -1.8934,-2.0866 -3.6694,-4.293 -5.3261,-6.6211 -1.6568,-2.3281 -3.1952,-4.7781 -4.6153,-7.3477 -1.42,-2.5696 -2.7209,-5.2592 -3.9043,-8.0703 -1.1833,-2.8111 -2.2486,-5.7423 -3.1953,-8.7949 -0.9467,-3.0526 -1.7743,-6.2274 -2.4844,-9.5215 -0.71,-3.2941 -1.302,-6.7085 -1.7753,-10.2441 -0.4734,-3.5357 -0.8298,-7.1916 -1.0664,-10.9688 -0.2367,-3.7771 -0.3536,-7.6747 -0.3536,-11.6933 l 0,-168.0879 z"
       id="path5042"
       inkscape:export-xdpi="100"
       inkscape:export-ydpi="100" />
    <path
       inkscape:connector-curvature="0"
       style="opacity:1;fill:#000000;fill-opacity:1;stroke:none;stroke-width:0.009;stroke-miterlimit:4;stroke-dasharray:none;stroke-opacity:1"
       d="m -356.89904,2546.3492 c -4.1347,0 -8.172,0.1358 -12.1133,0.4063 -3.9414,0.2704 -7.787,0.6758 -11.5352,1.2167 -3.7482,0.541 -7.4002,1.2179 -10.955,2.0293 -3.555,0.8115 -7.0133,1.758 -10.375,2.8399 -3.3232,1.0433 -6.5,2.1834 -9.5332,3.4199 -3.0334,1.2365 -5.9227,2.5684 -8.6661,3.9981 -2.7435,1.4297 -5.3412,2.9571 -7.795,4.58 -2.4537,1.6229 -4.7637,3.3421 -6.9276,5.1582 -2.2412,1.8548 -4.3417,3.7717 -6.3028,5.752 -1.961,1.9803 -3.782,4.023 -5.4628,6.1289 -1.6809,2.1059 -3.2204,4.2763 -4.6211,6.5078 -1.4008,2.2315 -2.6628,4.5257 -3.7833,6.8828 -1.08199,2.3571 -2.02829,4.7512 -2.83989,7.1856 -0.8114,2.4343 -1.4882,4.9082 -2.0292,7.4199 -0.541,2.5116 -0.9463,5.0615 -1.2168,7.6504 -0.2705,2.5889 -0.4062,5.2166 -0.4062,7.8828 0,4.2505 0.2955,8.3377 0.8847,12.2598 0.5893,3.922 1.4738,7.6798 2.6524,11.2734 0.5892,1.7968 1.2517,3.5529 1.9883,5.2676 0.73649,1.7147 1.54569,3.3869 2.42959,5.0195 0.884,1.6326 1.8419,3.2249 2.8731,4.7754 1.0312,1.5505 2.1359,3.059 3.3144,4.5273 1.1979,1.4491 2.4992,2.8548 3.9024,4.2168 1.4031,1.3621 2.9091,2.6819 4.5176,3.9571 1.6084,1.2751 3.319,2.5051 5.1328,3.6933 1.8137,1.1882 3.731,2.3343 5.75,3.4356 4.0379,2.2025 8.4847,4.2312 13.3437,6.0859 4.859,1.8548 10.1304,3.536 15.8106,5.043 4.0959,1.0819 8.4028,2.1242 12.9238,3.1289 4.521,1.0046 9.2552,1.9711 14.2012,2.8984 10.0465,1.8548 18.1612,3.4781 24.3436,4.8692 4.1732,0.9273 8.0089,1.9018 11.506,2.9258 3.4969,1.0239 6.6558,2.0962 9.4766,3.2167 2.8206,1.1206 5.3026,2.2907 7.4472,3.5079 2.1446,1.2171 3.9515,2.4811 5.4198,3.7949 1.4685,1.3138 2.7524,2.7833 3.8536,4.4062 1.1012,1.6229 2.0198,3.4 2.754,5.3321 0.734,1.932 1.2851,4.0186 1.6522,6.2597 0.3671,2.2412 0.5508,4.6372 0.5508,7.1875 0,1.6616 -0.085,3.2679 -0.2538,4.8184 -0.1692,1.5504 -0.4237,3.045 -0.7617,4.4844 -0.3381,1.4393 -0.7606,2.8221 -1.2677,4.1504 -0.5072,1.3282 -1.0992,2.6011 -1.7754,3.8183 -0.6761,1.2172 -1.4359,2.3802 -2.2813,3.4863 -0.8451,1.1061 -1.7747,2.1554 -2.7889,3.1504 -1.0144,0.995 -2.1135,1.9345 -3.297,2.8184 -1.1834,0.8839 -2.4523,1.7135 -3.8046,2.4863 -2.7048,1.5456 -5.67,2.8974 -8.8966,4.0567 -3.2264,1.1592 -6.7147,2.1256 -10.4629,2.8984 -3.748,0.7728 -7.7554,1.3519 -12.0254,1.7383 -4.2698,0.3864 -8.8003,0.5801 -13.5916,0.5801 -3.8641,0 -7.7717,-0.1897 -11.7227,-0.5664 -3.951,-0.3768 -7.9464,-0.9419 -11.9844,-1.6954 -4.038,-0.7535 -8.1193,-1.6939 -12.2441,-2.8242 -4.1249,-1.1302 -8.294,-2.45 -12.5059,-3.957 -4.2119,-1.5456 -8.327,-3.2209 -12.3458,-5.0274 -4.0186,-1.8064 -7.9402,-3.7432 -11.7656,-5.8105 -3.8253,-2.0673 -7.5533,-4.2656 -11.1856,-6.5938 -3.6322,-2.3281 -7.16829,-4.786 -10.60739,-7.375 l -2.3183,0 0,48.92 c 2.7048,1.3524 5.5681,2.6802 8.59179,3.9843 3.0236,1.3042 6.2083,2.5841 9.5507,3.8399 6.6849,2.5116 14.0068,4.9257 21.9668,7.2441 4.0187,1.1206 8.1339,2.101 12.3457,2.9414 4.2119,0.8405 8.5208,1.5413 12.9258,2.1016 4.4051,0.5603 8.9057,0.9816 13.5039,1.2617 4.5983,0.2802 9.2926,0.4199 14.084,0.4199 4.2312,0 8.3509,-0.1188 12.3574,-0.3554 4.0066,-0.2367 7.9017,-0.5911 11.6836,-1.0645 3.782,-0.4733 7.4505,-1.0654 11.0079,-1.7754 3.5573,-0.71 7.0032,-1.5377 10.3359,-2.4843 3.3327,-0.9467 6.5521,-2.012 9.6601,-3.1954 3.1083,-1.1833 6.1049,-2.4862 8.9883,-3.9062 2.88371,-1.4201 5.6556,-2.9585 8.3145,-4.6152 2.65891,-1.6568 5.2044,-3.4309 7.6387,-5.3243 2.4537,-1.8934 4.7554,-3.8526 6.9024,-5.8789 2.1469,-2.0262 4.1401,-4.1202 5.98041,-6.2793 1.8402,-2.159 3.527,-4.3839 5.0605,-6.6757 1.5336,-2.2919 2.9139,-4.6496 4.1406,-7.0743 1.2269,-2.4247 2.3006,-4.917 3.2207,-7.4746 0.92019,-2.5575 1.68749,-5.1807 2.30079,-7.8711 0.6134,-2.6903 1.0722,-5.4483 1.3789,-8.2715 0.3068,-2.8231 0.461,-5.7119 0.461,-8.6679 0,-2.3571 -0.086,-4.6553 -0.2579,-6.8965 -0.1714,-2.2412 -0.4285,-4.4256 -0.7714,-6.5508 -0.343,-2.1252 -0.7708,-4.1918 -1.2852,-6.2012 -0.5144,-2.0093 -1.1149,-3.9601 -1.80079,-5.8535 -0.6859,-1.8934 -1.4571,-3.7303 -2.3144,-5.5078 -0.8574,-1.7775 -1.8013,-3.4966 -2.8301,-5.1582 -1.0288,-1.6615 -2.1435,-3.2649 -3.3438,-4.8105 -1.2002,-1.5457 -2.4856,-3.0332 -3.85741,-4.4629 -1.3717,-1.4104 -2.8154,-2.7697 -4.332,-4.0762 -1.5167,-1.3065 -3.106,-2.561 -4.7676,-3.7637 -3.3231,-2.4054 -6.9371,-4.6018 -10.8398,-6.5918 -3.90269,-1.99 -8.0939,-3.773 -12.5762,-5.3476 -4.4823,-1.5746 -9.2545,-2.9424 -14.3164,-4.1016 -6.6462,-1.5456 -14.9944,-3.2448 -25.041,-5.0996 -9.8921,-1.8548 -18.8553,-3.7097 -26.8926,-5.5645 -3.6322,-0.85 -7.0145,-1.7626 -10.1445,-2.7382 -3.1299,-0.9757 -6.0072,-2.014 -8.6348,-3.1153 -2.6276,-1.1012 -5.0037,-2.2653 -7.1289,-3.4922 -2.1252,-1.2268 -4.0001,-2.5167 -5.6231,-3.8691 -1.6615,-1.3524 -3.1151,-2.8699 -4.3613,-4.5508 -1.2461,-1.6809 -2.2844,-3.5258 -3.1152,-5.5351 -0.8308,-2.0094 -1.4538,-4.1818 -1.8692,-6.5196 -0.4153,-2.3377 -0.623,-4.8396 -0.623,-7.5058 0,-1.507 0.084,-2.9681 0.2559,-4.3809 0.1714,-1.4128 0.4285,-2.779 0.7714,-4.0976 0.3431,-1.3187 0.7727,-2.5901 1.2871,-3.8145 0.5145,-1.2244 1.115,-2.401 1.8008,-3.5312 0.6859,-1.1303 1.4572,-2.214 2.3145,-3.25 0.8573,-1.0361 1.7993,-2.025 2.8281,-2.9668 1.0288,-0.9419 2.1435,-1.836 3.3438,-2.6836 1.2002,-0.8477 2.4876,-1.6489 3.8594,-2.4024 2.7435,-1.5456 5.6407,-2.8974 8.6934,-4.0566 3.0526,-1.1592 6.2593,-2.1256 9.6211,-2.8985 3.3617,-0.7728 6.8779,-1.3518 10.5488,-1.7382 3.6709,-0.3864 7.4966,-0.5801 11.4766,-0.5801 3.8253,0 7.6711,0.1797 11.5351,0.5371 3.8641,0.3574 7.7477,0.8926 11.6504,1.6074 3.9027,0.7149 7.8243,1.6094 11.7655,2.6817 3.9415,1.0722 7.903,2.3222 11.883,3.7519 3.98,1.3911 7.80971,2.8646 11.49021,4.4199 3.6805,1.5553 7.2107,3.1926 10.5917,4.9121 3.38109,1.7196 6.6119,3.5206 9.6935,5.4043 3.0815,1.8838 6.0147,3.8505 8.7968,5.8985 l 2.3184,0 0,-46.6016 c -2.6276,-1.3524 -5.425,-2.6523 -8.3906,-3.8984 -2.9657,-1.2462 -6.10061,-2.4382 -9.40431,-3.5782 -3.30379,-1.1399 -6.77609,-2.2261 -10.41799,-3.2597 -3.6419,-1.0337 -7.4536,-2.014 -11.43361,-2.9414 -3.9414,-0.966 -7.8729,-1.8126 -11.7949,-2.5371 -3.9221,-0.7245 -7.8336,-1.3276 -11.7364,-1.8106 -3.9027,-0.483 -7.7962,-0.8464 -11.6796,-1.0879 -3.8834,-0.2415 -7.7571,-0.3613 -11.6211,-0.3613 z"
       id="path5040"
       inkscape:export-xdpi="100"
       inkscape:export-ydpi="100" />
    <path
       inkscape:connector-curvature="0"
       style="opacity:1;fill:#000000;fill-opacity:1;stroke:none;stroke-width:0.009;stroke-miterlimit:4;stroke-dasharray:none;stroke-opacity:1"
       d="m -632.33073,2544.4937 c -4.5789,0 -9.0401,0.1921 -13.3847,0.5761 -4.3448,0.384 -8.5713,0.9606 -12.68171,1.7286 -4.1105,0.7679 -8.1043,1.7269 -11.9804,2.8789 -3.8762,1.1519 -7.6356,2.4972 -11.2774,4.0332 -3.6419,1.5359 -7.1666,3.2636 -10.5742,5.1836 -3.4076,1.9199 -6.6977,4.0319 -9.8711,6.3359 -3.1734,2.304 -6.2308,4.8003 -9.17,7.4883 -2.9391,2.6879 -5.76,5.5667 -8.4648,8.6387 -2.6856,3.0526 -5.2029,6.2438 -7.5527,9.5742 -2.3498,3.3303 -4.5327,6.8001 -6.5469,10.4082 -2.0142,3.6081 -3.8606,7.3544 -5.539,11.2402 -1.6785,3.8858 -3.1885,7.9107 -4.5314,12.0742 -1.3427,4.1636 -2.5183,8.467 -3.5254,12.9082 -1.0071,4.4413 -1.8462,9.0213 -2.5175,13.7403 -0.6713,4.719 -1.174,9.5755 -1.5098,14.5722 -0.3357,4.9968 -0.5038,10.1338 -0.5038,15.4082 0,5.2745 0.1682,10.4096 0.5038,15.4063 0.3358,4.9967 0.8385,9.8552 1.5098,14.5742 0.6713,4.719 1.5105,9.299 2.5175,13.7402 1.0071,4.4413 2.1827,8.7427 3.5254,12.9063 1.3428,4.1635 2.8528,8.1884 4.5314,12.0742 1.6784,3.8858 3.5248,7.6341 5.539,11.2422 2.0142,3.6081 4.1971,7.0759 6.5469,10.4062 2.3498,3.3304 4.8671,6.5216 7.5527,9.5743 2.7048,3.0526 5.5257,5.9149 8.4648,8.5859 2.9392,2.671 5.9965,5.1519 9.17,7.4414 3.1733,2.2895 6.4635,4.387 9.8711,6.2949 3.4076,1.9079 6.9323,3.6261 10.5742,5.1524 3.6419,1.5263 7.4012,2.8611 11.2774,4.0058 3.8761,1.1448 7.8699,2.0982 11.9804,2.8614 4.11041,0.7631 8.33691,1.3371 12.68171,1.7187 4.3445,0.3816 8.8058,0.5723 13.3847,0.5723 4.5403,0 8.9665,-0.1907 13.2774,-0.5723 4.3108,-0.3816 8.5064,-0.9556 12.5879,-1.7187 4.0814,-0.7632 8.0483,-1.7166 11.9004,-2.8614 3.852,-1.1447 7.5903,-2.4795 11.2128,-4.0058 3.6226,-1.5263 7.1303,-3.2445 10.5235,-5.1524 3.3931,-1.9079 6.6703,-4.0054 9.834,-6.2949 3.1637,-2.2895 6.2141,-4.7704 9.1484,-7.4414 2.9343,-2.671 5.7522,-5.5333 8.457,-8.5859 2.7049,-3.0527 5.2407,-6.2439 7.6075,-9.5743 2.3667,-3.3303 4.5651,-6.7981 6.5937,-10.4062 2.0286,-3.6081 3.8876,-7.3564 5.5781,-11.2422 1.6906,-3.8858 3.2121,-7.9107 4.5645,-12.0742 1.3524,-4.1636 2.5364,-8.465 3.5508,-12.9063 1.0143,-4.4412 1.8589,-9.0212 2.5351,-13.7402 0.6762,-4.719 1.1834,-9.5775 1.5215,-14.5742 0.3381,-4.9967 0.5078,-10.1318 0.5078,-15.4063 0,-5.2744 -0.1697,-10.4114 -0.5078,-15.4082 -0.3381,-4.9967 -0.8453,-9.8532 -1.5215,-14.5722 -0.6762,-4.719 -1.5208,-9.299 -2.5351,-13.7403 -1.0144,-4.4412 -2.1984,-8.7446 -3.5508,-12.9082 -1.3524,-4.1635 -2.8739,-8.1884 -4.5645,-12.0742 -1.6905,-3.8858 -3.5495,-7.6321 -5.5781,-11.2402 -2.0286,-3.6081 -4.227,-7.0779 -6.5937,-10.4082 -2.3668,-3.3304 -4.9026,-6.5216 -7.6075,-9.5742 -2.7048,-3.072 -5.5227,-5.9508 -8.457,-8.6387 -2.9343,-2.688 -5.9847,-5.1843 -9.1484,-7.4883 -3.1637,-2.304 -6.4409,-4.416 -9.834,-6.3359 -3.3932,-1.92 -6.9009,-3.6477 -10.5235,-5.1836 -3.6225,-1.536 -7.3608,-2.8813 -11.2128,-4.0332 -3.8521,-1.152 -7.819,-2.111 -11.9004,-2.8789 -4.0815,-0.768 -8.2771,-1.3446 -12.5879,-1.7286 -4.3109,-0.384 -8.7371,-0.5761 -13.2774,-0.5761 z m 0,37.5586 c 2.9174,0 5.7557,0.1287 8.5137,0.3847 2.758,0.256 5.4366,0.6404 8.0352,1.1524 2.5985,0.512 5.1174,1.1519 7.5566,1.9199 2.4392,0.768 4.7982,1.6635 7.0781,2.6875 2.2798,1.024 4.4791,2.1751 6.5996,3.4551 2.1204,1.2799 4.1621,2.6886 6.1231,4.2246 1.961,1.536 3.8429,3.2002 5.6445,4.9922 1.8016,1.7919 3.5238,3.7118 5.166,5.7597 1.6423,2.0287 3.1803,4.1931 4.6171,6.4922 1.437,2.2991 2.7723,4.7331 4.0039,7.3028 1.2317,2.5696 2.3603,5.2751 3.3867,8.1152 1.0264,2.8401 1.9504,5.8152 2.7716,8.9258 0.821,3.1106 1.5404,6.3552 2.1563,9.7363 0.6158,3.3811 1.1285,6.8973 1.539,10.5488 0.4106,3.6516 0.7186,7.4393 0.9239,11.3614 0.2052,3.922 0.3065,7.9793 0.3065,12.1718 0,4.0959 -0.1027,8.0654 -0.3105,11.9102 -0.2076,3.8447 -0.5201,7.5646 -0.9356,11.1582 -0.4154,3.5936 -0.9335,7.0619 -1.5565,10.4043 -0.6231,3.3424 -1.3509,6.5591 -2.1818,9.6504 -0.8307,3.0912 -1.7642,6.0564 -2.8027,8.8965 -1.0385,2.8401 -2.1815,5.5556 -3.4276,8.1445 -1.2463,2.5889 -2.597,5.0509 -4.0508,7.3887 -1.4539,2.3377 -3.0103,4.5501 -4.672,6.6367 -1.6422,2.0673 -3.3629,4.0056 -5.1621,5.8144 -1.7991,1.8089 -3.6766,3.4886 -5.6328,5.0391 -1.9562,1.5505 -3.9923,2.9716 -6.1055,4.2637 -2.1132,1.292 -4.3041,2.4546 -6.5742,3.4883 -2.27,1.0336 -4.6178,1.9376 -7.0449,2.7128 -2.4271,0.7753 -4.9335,1.4227 -7.5176,1.9395 -2.5841,0.5168 -5.2472,0.9037 -7.9883,1.1621 -2.741,0.2584 -5.5608,0.3887 -8.459,0.3887 -2.9367,0 -5.7915,-0.1318 -8.5663,-0.3926 -2.7749,-0.2608 -5.469,-0.6522 -8.0821,-1.1738 -2.6131,-0.5217 -5.1464,-1.1726 -7.59771,-1.9551 -2.4512,-0.7825 -4.8199,-1.6969 -7.1093,-2.7402 -2.2895,-1.0433 -4.4993,-2.2154 -6.627,-3.5196 -2.1276,-1.3041 -4.1748,-2.7397 -6.1406,-4.3047 -1.9659,-1.5649 -3.8503,-3.2601 -5.6543,-5.0859 -1.8041,-1.8258 -3.5277,-3.7825 -5.1699,-5.8691 -1.6423,-2.106 -3.1803,-4.3338 -4.6172,-6.6836 -1.4369,-2.3499 -2.7723,-4.8203 -4.0038,-7.4141 -1.2318,-2.5938 -2.3604,-5.3108 -3.3867,-8.1484 -1.0264,-2.8377 -1.9504,-5.7973 -2.7716,-8.8789 -0.8212,-3.0816 -1.5404,-6.2839 -2.1563,-9.6094 -0.6158,-3.3255 -1.1285,-6.7743 -1.539,-10.3438 -0.4106,-3.5694 -0.7186,-7.2608 -0.9239,-11.0742 -0.2053,-3.8133 -0.3066,-7.7474 -0.3066,-11.8047 0,-4.1925 0.1,-8.2498 0.3027,-12.1718 0.2029,-3.9221 0.5084,-7.7098 0.9141,-11.3614 0.4057,-3.6515 0.9129,-7.1677 1.5215,-10.5488 0.6086,-3.3811 1.3174,-6.6257 2.1289,-9.7363 0.8114,-3.1106 1.7259,-6.0857 2.7402,-8.9258 1.0143,-2.8401 2.1285,-5.5456 3.3457,-8.1152 1.2172,-2.5697 2.537,-5.0037 3.9571,-7.3028 1.4201,-2.2991 2.9416,-4.4635 4.5644,-6.4922 1.6422,-2.0479 3.3654,-3.9678 5.172,-5.7597 1.8063,-1.792 3.6953,-3.4562 5.6659,-4.9922 1.9708,-1.536 4.0234,-2.9447 6.1583,-4.2246 2.1349,-1.28 4.3532,-2.4311 6.6523,-3.4551 2.2991,-1.024 4.6793,-1.9195 7.1425,-2.6875 2.46351,-0.768 5.00921,-1.4079 7.63671,-1.9199 2.6276,-0.512 5.3371,-0.8964 8.1289,-1.1524 2.7918,-0.256 5.6651,-0.3847 8.6211,-0.3847 z"
       id="path5030"
       inkscape:export-xdpi="100"
       inkscape:export-ydpi="100" />
    <path
       inkscape:connector-curvature="0"
       style="opacity:1;fill:#000000;fill-opacity:1;stroke:none;stroke-width:0.009;stroke-miterlimit:4;stroke-dasharray:none;stroke-opacity:1"
       d="m -864.86974,2465.1167 0,45.209 49.1504,0 0,-45.209 -49.1504,0 z"
       id="path5012"
       inkscape:export-xdpi="100"
       inkscape:export-ydpi="100" />
    <path
       inkscape:connector-curvature="0"
       style="opacity:1;fill:#000000;fill-opacity:1;stroke:none;stroke-width:0.009;stroke-miterlimit:4;stroke-dasharray:none;stroke-opacity:1"
       d="m -991.92054,2449.9019 0,112.2129 c -5.7961,-3.014 -11.45676,-5.6237 -16.98236,-7.8262 -2.7629,-1.1013 -5.4923,-2.0997 -8.1875,-2.9981 -2.6953,-0.8984 -5.3568,-1.695 -7.9844,-2.3906 -2.6276,-0.7342 -5.3512,-1.3771 -8.172,-1.9277 -2.8207,-0.5506 -5.738,-1.0099 -8.7518,-1.377 -3.014,-0.3671 -6.125,-0.6426 -9.3322,-0.8261 -3.2072,-0.1836 -6.5117,-0.2754 -9.9121,-0.2754 -3.7481,0 -7.4659,0.1936 -11.1561,0.58 -3.6902,0.3865 -7.3523,0.9655 -10.9845,1.7383 -3.6322,0.7728 -7.2363,1.7392 -10.8106,2.8985 -3.5742,1.1592 -7.1184,2.511 -10.6347,4.0566 -3.4777,1.5456 -6.8501,3.2668 -10.1153,5.1602 -3.2651,1.8934 -6.4239,3.96 -9.4765,6.2011 -3.0526,2.2412 -5.9978,4.6552 -8.8379,7.2442 -2.84,2.5889 -5.5735,5.3523 -8.2011,8.289 -2.6662,3.014 -5.1981,6.1868 -7.5937,9.5196 -2.3958,3.3327 -4.656,6.825 -6.7813,10.4765 -2.1252,3.6516 -4.116,7.4633 -5.9708,11.4336 -1.8547,3.9704 -3.5739,8.0996 -5.1582,12.3887 -1.5456,4.2891 -2.8974,8.7278 -4.0566,13.3164 -1.1592,4.5886 -2.1256,9.3268 -2.8985,14.2148 -0.7728,4.8881 -1.3517,9.9258 -1.7382,15.1133 -0.3865,5.1875 -0.58,10.5248 -0.58,16.0117 0,5.2745 0.1412,10.4056 0.4238,15.3926 0.2826,4.9871 0.7064,9.8316 1.2715,14.5313 0.5651,4.6997 1.2715,9.2557 2.1191,13.6679 0.8477,4.4123 1.8366,8.6798 2.9667,12.8047 1.1303,4.1249 2.4017,8.1059 3.8145,11.9434 1.4128,3.8375 2.9667,7.5319 4.6621,11.082 1.6954,3.5501 3.5318,6.956 5.5098,10.2188 1.978,3.2627 4.0969,6.3821 6.3575,9.3574 2.2798,2.9753 4.6588,5.7657 7.1367,8.3691 2.4777,2.6035 5.0545,5.0205 7.7304,7.252 2.6758,2.2315 5.4522,4.2771 8.3261,6.1367 2.8739,1.8596 5.8461,3.5338 8.918,5.0215 3.0719,1.4877 6.2437,2.7885 9.5137,3.9043 3.27,1.1157 6.6374,2.0452 10.1054,2.7891 3.4681,0.7438 7.0352,1.3019 10.7012,1.6738 3.6661,0.3719 7.4309,0.5586 11.2949,0.5586 3.98,0 7.8876,-0.1897 11.7227,-0.5664 3.8351,-0.3768 7.5989,-0.9419 11.2891,-1.6953 3.6901,-0.7535 7.3082,-1.694 10.8535,-2.8243 3.5453,-1.1302 7.0176,-2.45 10.4179,-3.957 3.4004,-1.507 6.7669,-3.1642 10.0997,-4.9707 3.3327,-1.8065 6.6313,-3.7613 9.8964,-5.8672 3.2652,-2.1059 6.4959,-4.3622 9.6934,-6.7676 3.19746,-2.4054 6.36226,-4.9611 9.49216,-7.666 l 0,27.127 43.5859,0 0,-360.75 -43.5859,0 z m -61.90236,134.4687 c 5.487,0 10.7604,0.2516 15.8223,0.7539 5.0619,0.5024 9.9119,1.2571 14.5488,2.2617 4.6369,1.0047 9.5828,2.4144 14.8379,4.2305 5.2552,1.8161 10.81996,4.0385 16.69336,6.666 l 0,148.6114 c -2.7435,2.1638 -5.5409,4.2305 -8.39056,6.2011 -2.8498,1.9707 -5.753,3.8456 -8.709,5.6231 -2.956,1.7775 -5.9651,3.4587 -9.0274,5.0429 -3.0622,1.5843 -6.1771,3.0719 -9.3457,4.4629 -3.1685,1.3525 -6.3273,2.5365 -9.4765,3.5508 -3.1493,1.0143 -6.2881,1.859 -9.418,2.5352 -3.1299,0.6762 -6.2508,1.1834 -9.3613,1.5215 -3.1106,0.3381 -6.2115,0.5078 -9.3028,0.5078 -2.898,0 -5.6964,-0.1243 -8.3965,-0.3731 -2.7,-0.2487 -5.3007,-0.6236 -7.8027,-1.1211 -2.502,-0.4975 -4.905,-1.119 -7.209,-1.8652 -2.3039,-0.7463 -4.5093,-1.6163 -6.6152,-2.6113 -2.1059,-0.995 -4.1136,-2.1137 -6.0215,-3.3575 -1.9079,-1.2437 -3.7159,-2.6129 -5.4258,-4.1054 -1.7098,-1.4925 -3.3202,-3.1084 -4.832,-4.8496 -1.5118,-1.7413 -2.9264,-3.6077 -4.2402,-5.5977 -1.3138,-2.0093 -2.5438,-4.1343 -3.6934,-6.373 -1.1496,-2.2388 -2.2178,-4.5905 -3.2031,-7.0586 -0.9854,-2.4682 -1.8879,-5.0524 -2.709,-7.75 -0.8211,-2.6976 -1.5599,-5.5085 -2.2168,-8.4356 -0.6569,-2.927 -1.2319,-5.9705 -1.7246,-9.1269 -0.4927,-3.1565 -0.904,-6.4266 -1.2324,-9.8125 -0.3285,-3.3859 -0.5741,-6.8867 -0.7383,-10.502 -0.1642,-3.6153 -0.2461,-7.3447 -0.2461,-11.1894 0,-3.9027 0.1058,-7.6945 0.3184,-11.375 0.2125,-3.6806 0.53,-7.2507 0.955,-10.709 0.4251,-3.4584 0.9582,-6.8049 1.5957,-10.041 0.6376,-3.2362 1.3804,-6.3611 2.2305,-9.375 0.8501,-3.014 1.8065,-5.9172 2.8691,-8.709 1.0627,-2.7918 2.2308,-5.4734 3.5059,-8.043 1.2751,-2.5696 2.6569,-5.0276 4.1445,-7.375 1.4877,-2.3474 3.083,-4.5837 4.7832,-6.709 1.7002,-2.1252 3.4843,-4.1189 5.3536,-5.9785 1.8692,-1.8596 3.823,-3.5857 5.8613,-5.1797 2.0383,-1.5939 4.1618,-3.0545 6.3691,-4.3828 2.2074,-1.3283 4.4986,-2.5233 6.875,-3.5859 2.3764,-1.0626 4.8374,-1.9921 7.3828,-2.7891 2.5455,-0.797 5.1761,-1.4628 7.8907,-1.9941 2.7145,-0.5313 5.5129,-0.9297 8.3964,-1.1953 2.8836,-0.2657 5.8517,-0.3985 8.9043,-0.3985 z"
       id="path5002"
       inkscape:export-xdpi="100"
       inkscape:export-ydpi="100" />
    <path
       id="path4900"
       d="m 74.035403,-108.12776 0,1122.85736 -1122.857403,0 0,-1122.85736 z"
       style="opacity:1;fill:#313439;fill-opacity:1;stroke:none;stroke-width:0.009;stroke-miterlimit:4;stroke-dasharray:none;stroke-opacity:1"
       inkscape:connector-curvature="0"
       sodipodi:nodetypes="ccccc"
       inkscape:export-xdpi="100"
       inkscape:export-ydpi="100" />
    <flowRoot
       transform="translate(-983.5526,-41.61855)"
       style="font-style:normal;font-weight:normal;font-size:741.59777832px;line-height:125%;font-family:sans-serif;letter-spacing:0px;word-spacing:0px;fill:#ba3945;fill-opacity:1;stroke:none;stroke-width:1px;stroke-linecap:butt;stroke-linejoin:miter;stroke-opacity:1"
       id="flowRoot4902"
       xml:space="preserve"
       inkscape:export-xdpi="100"
       inkscape:export-ydpi="100"><flowRegion
         id="flowRegion4904"><rect
           style="fill:#ba3945;fill-opacity:1"
           y="-169.34787"
           x="-28.672884"
           height="5356.2568"
           width="12323.137"
           id="rect4906" /></flowRegion><flowPara
         id="flowPara4908">Dg</flowPara></flowRoot>    <flowRoot
       transform="translate(-983.5526,-41.61855)"
       style="font-style:normal;font-weight:normal;font-size:118.44917297px;line-height:125%;font-family:sans-serif;letter-spacing:0px;word-spacing:0px;fill:#ba3945;fill-opacity:1;stroke:none;stroke-width:1px;stroke-linecap:butt;stroke-linejoin:miter;stroke-opacity:1"
       id="flowRoot4910"
       xml:space="preserve"
       inkscape:export-xdpi="100"
       inkscape:export-ydpi="100"><flowRegion
         id="flowRegion4912"><rect
           style="fill:#ba3945;fill-opacity:1"
           y="849.55109"
           x="-11.568748"
           height="191.44279"
           width="1100.796"
           id="rect4914" /></flowRegion><flowPara
         id="flowPara4916">DamGap Studios</flowPara></flowRoot>    <flowRoot
       transform="translate(-983.5526,-41.61855)"
       style="font-style:normal;font-weight:normal;font-size:86.34559631px;line-height:125%;font-family:sans-serif;letter-spacing:0px;word-spacing:0px;fill:#ba3945;fill-opacity:1;stroke:none;stroke-width:1px;stroke-linecap:butt;stroke-linejoin:miter;stroke-opacity:1"
       id="flowRoot4918"
       xml:space="preserve"
       inkscape:export-xdpi="100"
       inkscape:export-ydpi="100"><flowRegion
         id="flowRegion4920"><rect
           style="fill:#ba3945;fill-opacity:1"
           y="-25.202442"
           x="774.85004"
           height="122.11108"
           width="226.77777"
           id="rect4922" /></flowRegion><flowPara
         id="flowPara4924">2017</flowPara></flowRoot>    <path
       inkscape:connector-curvature="0"
       style="opacity:1;fill:#313439;fill-opacity:1;stroke:none;stroke-width:0.009;stroke-miterlimit:4;stroke-dasharray:none;stroke-opacity:1"
       d="m -2034.2852,1315.2188 0,540 540,0 0,-540 -540,0 z m 27,27 486,0 0,486 -486,0 0,-486 z"
       id="rect4928"
       inkscape:export-xdpi="100"
       inkscape:export-ydpi="100" />
    <flowRoot
       xml:space="preserve"
       id="flowRoot4930"
       style="font-style:normal;font-weight:normal;font-size:40px;line-height:125%;font-family:sans-serif;letter-spacing:0px;word-spacing:0px;fill:#ba3945;fill-opacity:1;stroke:none;stroke-width:1px;stroke-linecap:butt;stroke-linejoin:miter;stroke-opacity:1"
       transform="matrix(11.963139,0,0,11.963139,2998.1657,-16148.495)"
       inkscape:export-xdpi="100"
       inkscape:export-ydpi="100"><flowRegion
         id="flowRegion4932"><rect
           id="rect4934"
           width="1322.8572"
           height="385.71429"
           x="-414.28571"
           y="1452.3622"
           style="fill:#ba3945;fill-opacity:1" /></flowRegion><flowPara
         id="flowPara4936">D</flowPara></flowRoot>    <flowRoot
       xml:space="preserve"
       id="flowRoot4943"
       style="font-style:normal;font-weight:normal;font-size:40px;line-height:125%;font-family:sans-serif;letter-spacing:0px;word-spacing:0px;fill:#ba3945;fill-opacity:1;stroke:none;stroke-width:1px;stroke-linecap:butt;stroke-linejoin:miter;stroke-opacity:1"
       transform="matrix(2.0555794,0,0,2.0555794,2089.7054,-1840.2261)"
       inkscape:export-xdpi="100"
       inkscape:export-ydpi="100"><flowRegion
         id="flowRegion4945"><rect
           id="rect4947"
           width="331.42856"
           height="82.85714"
           x="-1960"
           y="1732.3622"
           style="fill:#ba3945;fill-opacity:1" /></flowRegion><flowPara
         id="flowPara4949">Dunham</flowPara></flowRoot>    <flowRoot
       xml:space="preserve"
       id="flowRoot5127"
       style="font-style:normal;font-weight:normal;font-size:40px;line-height:125%;font-family:sans-serif;letter-spacing:0px;word-spacing:0px;fill:#ba3945;fill-opacity:1;stroke:none;stroke-width:1px;stroke-linecap:butt;stroke-linejoin:miter;stroke-opacity:1"
       transform="matrix(1.5061789,0,0,1.5061789,767.41276,-407.78186)"
       inkscape:export-xdpi="100"
       inkscape:export-ydpi="100"><flowRegion
         id="flowRegion5129"><rect
           id="rect5131"
           width="72.85714"
           height="85.714287"
           x="-1572.8572"
           y="1152.3622"
           style="fill:#ba3945;fill-opacity:1" /></flowRegion><flowPara
         id="flowPara5133">23</flowPara></flowRoot>    <path
       inkscape:connector-curvature="0"
       style="opacity:1;fill:#000000;fill-opacity:1;stroke:none;stroke-width:0.009;stroke-miterlimit:4;stroke-dasharray:none;stroke-opacity:1"
       d="m -834.66297,2000.7355 c -3.90271,0 -7.82026,0.088 -11.75195,0.2617 -3.93169,0.1739 -7.87917,0.4335 -11.83984,0.7813 -3.96068,0.3477 -7.93418,0.783 -11.92383,1.3047 -3.98966,0.5216 -7.99504,1.1306 -12.01367,1.8261 -8.03728,1.3911 -15.12761,2.7229 -21.27149,3.9981 -6.14388,1.2751 -11.34131,2.4931 -15.5918,3.6523 l 0,44.2813 2.31836,0 c 7.49631,-2.8594 14.87812,-5.3694 22.14258,-7.5332 7.26446,-2.1639 14.4127,-3.9809 21.44532,-5.4493 7.03261,-1.5456 13.7356,-2.7057 20.11132,-3.4785 3.18786,-0.3864 6.29472,-0.6759 9.31836,-0.8691 3.02364,-0.1932 5.96481,-0.2891 8.82422,-0.2891 4.71417,0 9.33255,0.1538 13.85352,0.4629 4.52096,0.3091 8.94372,0.7743 13.27148,1.3926 2.16388,0.3091 4.25045,0.6905 6.25977,1.1445 2.00932,0.4541 3.94212,0.9792 5.79687,1.5782 1.85476,0.5989 3.63184,1.2717 5.33203,2.0156 1.7002,0.7438 3.32351,1.5585 4.86914,2.4472 1.62291,0.9274 3.14842,1.9418 4.57813,3.043 1.42971,1.1013 2.7635,2.2893 4,3.5645 1.2365,1.2751 2.37662,2.6388 3.41992,4.0879 1.0433,1.449 1.98975,2.9845 2.83984,4.6074 0.88874,1.6229 1.66548,3.352 2.33204,5.1875 0.66655,1.8354 1.2236,3.7762 1.66796,5.8242 0.44437,2.048 0.77782,4.2024 1,6.4629 0.22219,2.2605 0.33204,4.6285 0.33204,7.1016 l 0,6.7226 c -12.67417,0.6183 -24.94199,1.391 -36.80469,2.3184 -11.86271,0.9273 -23.31985,2.0096 -34.3711,3.2461 -5.52562,0.6182 -10.85286,1.377 -15.98242,2.2754 -5.12956,0.8984 -10.06143,1.9366 -14.79492,3.1152 -4.73349,1.1785 -9.26805,2.4964 -13.60547,3.9551 -4.33742,1.4587 -8.47856,3.058 -12.41992,4.7968 -3.90271,1.7389 -7.58267,3.6417 -11.04102,5.709 -3.45834,2.0673 -6.695,4.2996 -9.70898,6.6953 -3.01398,2.3958 -5.80539,4.9556 -8.375,7.6797 -2.56961,2.7242 -4.91578,5.6115 -7.04102,8.6641 -1.0433,1.507 -2.02266,3.0739 -2.93554,4.6992 -0.91289,1.6253 -1.7605,3.3091 -2.54297,5.0527 -1.56495,3.4874 -2.86881,7.2112 -3.91211,11.1719 -1.0433,3.9607 -1.82601,8.1578 -2.34766,12.5918 -0.52165,4.434 -0.78125,9.1063 -0.78125,14.0137 0,2.9946 0.12533,5.9214 0.37891,8.7832 0.25358,2.8618 0.63542,5.6577 1.14258,8.3867 0.50716,2.729 1.13965,5.3921 1.90039,7.9883 0.76074,2.5962 1.64974,5.1265 2.66406,7.5898 1.01432,2.4634 2.15398,4.859 3.42188,7.1895 1.26789,2.3305 2.66211,4.5953 4.18359,6.793 1.52148,2.1976 3.17025,4.3296 4.94531,6.3945 1.77506,2.0648 3.67644,4.0621 5.70508,5.9941 2.02864,1.9321 4.11418,3.7431 6.25391,5.4336 2.13973,1.6906 4.33511,3.26 6.58593,4.709 2.25083,1.449 4.55606,2.7788 6.91797,3.9863 2.36192,1.2076 4.7809,2.2938 7.25391,3.2598 2.47301,0.966 4.99988,1.8106 7.58398,2.5352 2.5841,0.7245 5.22473,1.3294 7.91993,1.8125 2.69519,0.483 5.44566,0.8444 8.25195,1.0859 2.80628,0.2415 5.66856,0.3633 8.58594,0.3633 6.33708,0 12.26734,-0.3095 17.79296,-0.9278 2.76282,-0.3091 5.42443,-0.6964 7.98438,-1.1601 2.55995,-0.4637 5.01987,-1.0048 7.37695,-1.6231 4.71417,-1.1592 9.15688,-2.473 13.33008,-3.9414 4.1732,-1.4683 8.07676,-3.0897 11.70898,-4.8672 3.09126,-1.391 6.22014,-3.0143 9.38868,-4.8691 3.16854,-1.8548 6.37527,-3.9413 9.62109,-6.2598 6.64621,-4.7914 11.90155,-8.5013 15.76563,-11.1289 l 0,27.5899 43.35546,0 0,-175.7383 c 0,-4.1732 -0.15973,-8.1766 -0.47851,-12.0117 -0.31879,-3.8351 -0.79602,-7.503 -1.43359,-11 -0.63758,-3.497 -1.43622,-6.8236 -2.39258,-9.9825 -0.95636,-3.1588 -2.07056,-6.1499 -3.34571,-8.9707 -1.27514,-2.8207 -2.69481,-5.5103 -4.25976,-8.0703 -1.56495,-2.5599 -3.27611,-4.9899 -5.13086,-7.289 -1.85476,-2.2992 -3.85349,-4.4676 -5.99805,-6.5059 -2.14456,-2.0383 -4.43477,-3.9452 -6.86914,-5.7226 -2.47301,-1.8162 -5.06273,-3.4974 -7.76758,-5.043 -2.70485,-1.5456 -5.52424,-2.9573 -8.46093,-4.2324 -2.9367,-1.2752 -5.98967,-2.4133 -9.15821,-3.418 -3.16854,-1.0047 -6.45313,-1.8752 -9.85351,-2.6094 -3.36175,-0.7728 -6.87395,-1.4497 -10.53516,-2.0293 -3.66121,-0.5796 -7.47096,-1.0608 -11.43164,-1.4472 -3.96068,-0.3864 -8.07189,-0.6779 -12.33203,-0.8711 -4.26014,-0.1932 -8.66891,-0.2891 -13.22852,-0.2891 z m 69.32032,129.3691 0,72.1036 c -2.70486,2.0866 -5.46634,4.1012 -8.28711,6.0429 -2.82078,1.9417 -5.70003,3.8107 -8.63672,5.6074 -2.9367,1.7968 -5.93176,3.522 -8.98438,5.1739 -3.05262,1.6519 -6.16349,3.2313 -9.33203,4.7383 -3.16854,1.4683 -6.41919,2.7522 -9.75195,3.8535 -3.33277,1.1012 -6.74716,2.0197 -10.24414,2.7539 -3.49699,0.7342 -7.07707,1.2833 -10.73828,1.6504 -3.66121,0.3671 -7.40309,0.5508 -11.22852,0.5508 -4.59825,0 -8.90313,-0.2317 -12.91211,-0.6954 -4.00898,-0.4636 -7.72287,-1.1585 -11.14258,-2.0859 -3.4197,-0.9274 -6.54456,-2.0874 -9.375,-3.4785 -1.41521,-0.6955 -2.75749,-1.4483 -4.02539,-2.2598 -1.2679,-0.8114 -2.46145,-1.68 -3.58203,-2.6074 -1.12058,-0.9467 -2.17183,-1.9515 -3.15234,-3.0117 -0.98051,-1.0602 -1.89004,-2.1759 -2.73047,-3.3496 -0.84044,-1.1737 -1.61018,-2.4042 -2.31055,-3.6914 -0.70036,-1.2873 -1.33229,-2.6325 -1.89258,-4.0332 -1.12058,-2.8015 -1.96119,-5.8285 -2.52148,-9.084 -0.56029,-3.2555 -0.83984,-6.7397 -0.83984,-10.4492 0,-3.2845 0.2416,-6.3894 0.7246,-9.3164 0.48301,-2.9271 1.20781,-5.6746 2.17383,-8.2442 0.96602,-2.5696 2.17402,-4.9616 3.62305,-7.1738 1.44903,-2.2122 3.13828,-4.2449 5.07031,-6.0996 1.93204,-1.8934 4.01459,-3.6625 6.2461,-5.3047 2.2315,-1.6422 4.61356,-3.1578 7.14453,-4.5488 2.53097,-1.3911 5.21058,-2.657 8.04101,-3.7969 2.83044,-1.1399 5.81151,-2.1542 8.94141,-3.043 2.62757,-0.7342 5.48687,-1.425 8.57812,-2.0723 3.09126,-0.6472 6.41381,-1.2502 9.96875,-1.8105 7.1099,-1.1206 15.14668,-2.067 24.11133,-2.8398 18.08387,-1.5457 33.77204,-2.7057 47.06446,-3.4786 z"
       id="path5038"
       inkscape:export-xdpi="100"
       inkscape:export-ydpi="100" />
    <path
       inkscape:connector-curvature="0"
       style="opacity:1;fill:#000000;fill-opacity:1;stroke:none;stroke-width:0.009;stroke-miterlimit:4;stroke-dasharray:none;stroke-opacity:1"
       d="m -508.69031,1999.8078 c -4.09592,0 -8.13329,0.2076 -12.11328,0.623 -3.98,0.4154 -7.90351,1.0384 -11.76758,1.8692 -3.86407,0.8307 -7.66982,1.869 -11.41797,3.1152 -3.74815,1.2462 -7.43808,2.6998 -11.07031,4.3613 -3.59359,1.6229 -7.09983,3.3481 -10.51953,5.1738 -3.41971,1.8258 -6.75223,3.7527 -9.99805,5.7813 -3.24582,2.0286 -6.40462,4.1591 -9.47656,6.3906 -3.07194,2.2315 -6.05702,4.5637 -8.95508,6.9981 l 0,-27.125 -43.58789,0 0,354.4902 43.58789,0 0,-108.5039 c 2.82077,1.5456 5.62618,2.9912 8.41797,4.334 2.79179,1.3427 5.56922,2.5827 8.33203,3.7226 2.76281,1.1399 5.51226,2.1782 8.24609,3.1153 2.73384,0.937 5.4514,1.7736 8.15625,2.5078 2.7435,0.7342 5.56484,1.3771 8.46289,1.9277 2.89806,0.5506 5.87317,1.0079 8.92579,1.375 3.05261,0.3671 6.18344,0.6426 9.39062,0.8262 3.20718,0.1835 6.49177,0.2754 9.85352,0.2754 3.86407,0 7.67382,-0.1917 11.43164,-0.5781 3.75781,-0.3865 7.46368,-0.9675 11.11523,-1.7403 3.65155,-0.7728 7.24964,-1.7392 10.79492,-2.8984 3.54529,-1.1592 7.03754,-2.511 10.47657,-4.0567 3.47766,-1.5842 6.83816,-3.3274 10.08398,-5.2304 3.24582,-1.9031 6.37665,-3.9657 9.39062,-6.1875 3.01398,-2.2219 5.91123,-4.6039 8.69336,-7.1446 2.78214,-2.5406 5.44972,-5.2402 8,-8.0996 2.7435,-3.0139 5.33126,-6.1927 7.76563,-9.5351 2.43437,-3.3424 4.7146,-6.8487 6.83984,-10.5196 2.12524,-3.6708 4.096,-7.5065 5.91211,-11.5058 1.81612,-3.9993 3.47739,-8.1625 4.98438,-12.4902 1.50699,-4.3665 2.82679,-8.8431 3.95703,-13.4317 1.13024,-4.5886 2.07072,-9.2888 2.82422,-14.0996 0.75349,-4.8108 1.31856,-9.7327 1.69531,-14.7656 0.37675,-5.033 0.56641,-10.1765 0.56641,-15.4317 0,-5.2358 -0.13726,-10.3289 -0.41016,-15.2773 -0.2729,-4.9484 -0.68271,-9.753 -1.22852,-14.4141 -0.5458,-4.661 -1.22817,-9.1771 -2.04687,-13.5508 -0.8187,-4.3736 -1.77363,-8.6051 -2.86524,-12.6914 -1.0916,-4.0862 -2.31909,-8.0273 -3.68359,-11.8261 -1.3645,-3.7989 -2.86455,-7.4553 -4.50195,-10.9668 -1.6374,-3.5115 -3.41197,-6.8795 -5.32227,-10.1035 -1.9103,-3.2241 -3.95742,-6.3036 -6.14062,-9.2403 -2.16388,-2.956 -4.43713,-5.7279 -6.81836,-8.3144 -2.38124,-2.5865 -4.87016,-4.9881 -7.46875,-7.2051 -2.59859,-2.217 -5.30515,-4.2482 -8.1211,-6.0957 -2.81594,-1.8475 -5.74209,-3.5103 -8.77539,-4.9883 -3.03329,-1.478 -6.17513,-2.7723 -9.42578,-3.8808 -3.25065,-1.1086 -6.61012,-2.0325 -10.07812,-2.7715 -3.46801,-0.739 -7.04316,-1.2926 -10.72852,-1.6621 -3.68536,-0.3695 -7.4801,-0.5547 -11.38281,-0.5547 z m -11.12891,41.5 c 2.76282,0 5.43739,0.1217 8.02149,0.3633 2.5841,0.2415 5.07703,0.6029 7.48242,1.0859 2.40538,0.483 4.72255,1.088 6.94922,1.8125 2.22667,0.7245 4.36415,1.5691 6.41211,2.5351 2.04796,0.9661 4.00575,2.0523 5.875,3.2598 1.86924,1.2075 3.64931,2.5354 5.33984,3.9844 1.69053,1.449 3.29287,3.0204 4.80469,4.7109 1.51182,1.6906 2.93252,3.5016 4.26562,5.4336 1.33311,1.9321 2.58354,3.9877 3.75,6.166 1.16647,2.1784 2.25017,4.4796 3.25,6.9043 0.99983,2.4247 1.91681,4.9716 2.75,7.6426 0.83319,2.671 1.5815,5.4654 2.24805,8.3828 0.66655,2.9174 1.25009,5.9574 1.75,9.1211 0.49991,3.1637 0.91672,6.4513 1.25,9.8613 0.33328,3.4101 0.58336,6.9433 0.75,10.5997 0.16664,3.6563 0.25,7.4351 0.25,11.3378 0,4.0187 -0.10584,7.9152 -0.31836,11.6875 -0.21252,3.7723 -0.53198,7.4213 -0.95703,10.9473 -0.42505,3.526 -0.95618,6.9294 -1.59375,10.209 -0.63757,3.2796 -1.38037,6.4354 -2.23047,9.4687 -0.85009,3.0333 -1.80652,5.9435 -2.86914,8.7305 -1.06262,2.787 -2.23267,5.4516 -3.50781,7.9922 -1.27515,2.5406 -2.65687,4.9577 -4.14453,7.252 -1.48767,2.2942 -3.08106,4.4657 -4.78125,6.5136 -1.7002,2.048 -3.48278,3.9678 -5.34961,5.7598 -1.86683,1.792 -3.8181,3.4543 -5.85157,4.9902 -2.03346,1.536 -4.1495,2.9447 -6.3496,4.2246 -2.20011,1.28 -4.48482,2.4331 -6.85157,3.4571 -2.36674,1.0239 -4.81622,1.9195 -7.34961,2.6875 -2.53338,0.7679 -5.14958,1.4079 -7.84961,1.9199 -2.70002,0.512 -5.48295,0.8963 -8.34961,1.1523 -2.86666,0.256 -5.81826,0.3828 -8.85156,0.3828 -5.64155,0 -10.99275,-0.2515 -16.05469,-0.7539 -5.06193,-0.5023 -9.83408,-1.2551 -14.3164,-2.2597 -4.40505,-1.0047 -9.2531,-2.4543 -14.54688,-4.3477 -5.29378,-1.8934 -11.03232,-4.2296 -17.21484,-7.0117 l 0,-146.7578 c 2.89806,-2.2025 5.82925,-4.2991 8.79492,-6.2891 2.96568,-1.99 5.96475,-3.8749 8.99805,-5.6523 3.0333,-1.7775 6.10025,-3.4487 9.20117,-5.0137 3.10092,-1.5649 6.23576,-3.0226 9.4043,-4.375 3.16854,-1.3524 6.3333,-2.5365 9.49218,-3.5508 3.15889,-1.0143 6.31172,-1.8589 9.46094,-2.5351 3.14922,-0.6762 6.29404,-1.1834 9.4336,-1.5215 3.13956,-0.3381 6.27439,-0.5078 9.40429,-0.5078 z"
       id="path5026"
       inkscape:export-xdpi="100"
       inkscape:export-ydpi="100" />
    <path
       id="path4951"
       d="m -1494.7381,1854.2384 0,540 540.00002,0 0,-540 -540.00002,0 z m 27,27 486.00002,0 0,486 -486.00002,0 0,-486 z"
       style="opacity:1;fill:#313439;fill-opacity:1;stroke:none;stroke-width:0.009;stroke-miterlimit:4;stroke-dasharray:none;stroke-opacity:1"
       inkscape:connector-curvature="0" />
    <flowRoot
       style="font-style:normal;font-weight:normal;font-size:478.52557373px;line-height:125%;font-family:sans-serif;letter-spacing:0px;word-spacing:0px;fill:#ba3945;fill-opacity:1;stroke:none;stroke-width:1px;stroke-linecap:butt;stroke-linejoin:miter;stroke-opacity:1"
       id="flowRoot4953"
       xml:space="preserve"
       transform="translate(-91.88145,541.87673)"><flowRegion
         id="flowRegion4955"><rect
           style="fill:#ba3945;fill-opacity:1"
           y="1223.4585"
           x="-1326.5632"
           height="4614.3535"
           width="15825.524"
           id="rect4957" /></flowRegion><flowPara
         id="flowPara4959">G</flowPara></flowRoot>    <flowRoot
       style="font-style:normal;font-weight:normal;font-size:82.22317505px;line-height:125%;font-family:sans-serif;letter-spacing:0px;word-spacing:0px;fill:#ba3945;fill-opacity:1;stroke:none;stroke-width:1px;stroke-linecap:butt;stroke-linejoin:miter;stroke-opacity:1"
       id="flowRoot4961"
       xml:space="preserve"
       transform="translate(-55.929779,541.87673)"><flowRegion
         id="flowRegion4963"><rect
           style="fill:#ba3945;fill-opacity:1"
           y="1717.9248"
           x="-1307.8016"
           height="170.31943"
           width="681.27771"
           id="rect4965" /></flowRegion><flowPara
         id="flowPara4967">Garera</flowPara></flowRoot>    <flowRoot
       transform="matrix(1.5061789,0,0,1.5061789,1301.6985,131.93243)"
       style="font-style:normal;font-weight:normal;font-size:40px;line-height:125%;font-family:sans-serif;letter-spacing:0px;word-spacing:0px;fill:#ba3945;fill-opacity:1;stroke:none;stroke-width:1px;stroke-linecap:butt;stroke-linejoin:miter;stroke-opacity:1"
       id="flowRoot5135"
       xml:space="preserve"
       inkscape:export-xdpi="100"
       inkscape:export-ydpi="100"><flowRegion
         id="flowRegion5137"><rect
           style="fill:#ba3945;fill-opacity:1"
           y="1152.3622"
           x="-1572.8572"
           height="85.714287"
           width="72.85714"
           id="rect5139" /></flowRegion><flowPara
         id="flowPara5141">22</flowPara></flowRoot>    <path
       inkscape:connector-curvature="0"
       style="opacity:1;fill:#313439;fill-opacity:1;stroke:none;stroke-width:0.009;stroke-miterlimit:4;stroke-dasharray:none;stroke-opacity:1"
       d="m -2035.5952,2393.9527 0,540 540,0 0,-540 -540,0 z m 27,27 486,0 0,486 -486,0 0,-486 z"
       id="path5225" />
    <flowRoot
       transform="translate(-707.6192,1093.2524)"
       xml:space="preserve"
       id="flowRoot5227"
       style="font-style:normal;font-weight:normal;font-size:478.52557373px;line-height:125%;font-family:sans-serif;letter-spacing:0px;word-spacing:0px;fill:#ba3945;fill-opacity:1;stroke:none;stroke-width:1px;stroke-linecap:butt;stroke-linejoin:miter;stroke-opacity:1"><flowRegion
         id="flowRegion5229"><rect
           id="rect5231"
           width="15825.524"
           height="4614.3535"
           x="-1326.5632"
           y="1223.4585"
           style="fill:#ba3945;fill-opacity:1" /></flowRegion><flowPara
         id="flowPara5233">St</flowPara></flowRoot>    <flowRoot
       transform="translate(-612.30414,1081.591)"
       xml:space="preserve"
       id="flowRoot5235"
       style="font-style:normal;font-weight:normal;font-size:82.22317505px;line-height:125%;font-family:sans-serif;letter-spacing:0px;word-spacing:0px;fill:#ba3945;fill-opacity:1;stroke:none;stroke-width:1px;stroke-linecap:butt;stroke-linejoin:miter;stroke-opacity:1"><flowRegion
         id="flowRegion5237"><rect
           id="rect5239"
           width="681.27771"
           height="170.31943"
           x="-1307.8016"
           y="1717.9248"
           style="fill:#ba3945;fill-opacity:1" /></flowRegion><flowPara
         id="flowPara5241">Studios</flowPara></flowRoot>    <flowRoot
       inkscape:export-ydpi="100"
       inkscape:export-xdpi="100"
       xml:space="preserve"
       id="flowRoot5243"
       style="font-style:normal;font-weight:normal;font-size:40px;line-height:125%;font-family:sans-serif;letter-spacing:0px;word-spacing:0px;fill:#ba3945;fill-opacity:1;stroke:none;stroke-width:1px;stroke-linecap:butt;stroke-linejoin:miter;stroke-opacity:1"
       transform="matrix(1.5061789,0,0,1.5061789,760.84136,671.64672)"><flowRegion
         id="flowRegion5245"><rect
           id="rect5247"
           width="72.85714"
           height="85.714287"
           x="-1572.8572"
           y="1152.3622"
           style="fill:#ba3945;fill-opacity:1" /></flowRegion><flowPara
         id="flowPara5249">20</flowPara></flowRoot>  </g>
</svg>
